<svg width="1200" height="1200" viewBox="0 0 1200 1200" fill="none" xmlns="http://www.w3.org/2000/svg">
<rect width="1200" height="1200" fill="#F1F1F1"/>
<g clip-path="url(#clip0_84481_4682)">
<path d="M1200 1200H0V0H1200V1200ZM599.396 207.875C569.967 208.002 541.019 208.985 517.242 210.419C494.195 211.809 474.143 213.719 463.682 216.097C456.102 217.819 447.292 222.021 439.214 226.394C430.497 231.112 420.37 237.296 409.511 244.503C387.776 258.928 362.222 278.036 337.826 299.075C313.537 320.023 289.709 343.474 271.931 366.637C255.239 388.383 240.137 414.588 241 440.384V863C241 944.738 307.262 1011 389 1011H810C891.738 1011 958 944.738 958 863V440.795C958.661 429.127 955.156 417.753 950.799 408.06C946.154 397.726 939.541 387.128 931.969 376.747C916.807 355.962 896.147 333.812 874.377 313.198C852.512 292.494 828.935 272.782 807.538 256.9C786.677 241.417 766.203 228.302 750.874 222.201C734.876 215.835 710.425 212.474 685.173 210.51C658.984 208.473 628.782 207.748 599.396 207.875ZM631.144 256.099C648.888 256.441 666.037 257.166 681.451 258.365C706.824 260.339 724.623 263.415 733.126 266.799C742.297 270.448 758.573 280.334 778.931 295.443C798.752 310.156 820.864 328.631 841.374 348.052C861.978 367.562 880.381 387.476 893.188 405.034C899.6 413.824 904.199 421.47 907.019 427.741C909.16 432.506 909.825 435.491 910.013 437H910V863C910 918.228 865.228 963 810 963H389C333.772 963 289 918.228 289 863V437.065C289.51 428.97 295.241 415.102 310.008 395.863C325.042 376.276 346.214 355.227 369.175 335.425C392.029 315.715 415.976 297.822 436.054 284.497C446.1 277.83 454.958 272.451 462.061 268.606C465.613 266.684 468.546 265.244 470.842 264.241C473.212 263.206 474.277 262.916 474.319 262.903C480.358 261.531 496.556 259.753 520.133 258.331C531.039 257.673 543.131 257.113 555.899 256.692L555.726 259.059L547.017 377.059L546.541 383.5H649.951L648.936 376.624L631.517 258.624L631.144 256.099ZM313 445V863C313 904.974 347.026 939 389 939H810C851.974 939 886 904.974 886 863V445H693V529C693 537.837 685.837 545 677 545H517C508.163 545 501 537.837 501 529V445H313ZM685.594 782.877C692.013 776.025 702.771 775.675 709.623 782.094C716.475 788.513 716.825 799.271 710.406 806.123C683.768 834.557 640.649 847.004 599.035 846.938C557.183 846.87 512.712 834.194 481.839 807.323C474.757 801.159 474.013 790.421 480.177 783.339C486.341 776.257 497.079 775.513 504.161 781.677C527.288 801.806 563.067 812.88 599.09 812.938C635.351 812.996 667.732 801.943 685.594 782.877ZM1026 632.5H976V703H1026V765L1117 674L1116.45 673.446L1026 581V632.5ZM82 668L82.5527 668.554L173 761V709.5H223V639H173V577L82 668ZM540 626C544.418 626 548 629.582 548 634V713C548 717.418 544.418 721 540 721H474C469.582 721 466 717.418 466 713V634C466 629.582 469.582 626 474 626H540ZM718 626C722.418 626 726 629.582 726 634V713C726 717.418 722.418 721 718 721H652C647.582 721 644 717.418 644 713V634C644 629.582 647.582 626 652 626H718Z" fill="black"/>
</g>
<defs>
<clipPath id="clip0_84481_4682">
<rect width="1200" height="1200" fill="white"/>
</clipPath>
</defs>
</svg>
