<svg width="1200" height="1200" viewBox="0 0 1200 1200" fill="none" xmlns="http://www.w3.org/2000/svg">
<g clip-path="url(#clip0_84481_4683)">
<mask id="mask0_84481_4683" style="mask-type:alpha" maskUnits="userSpaceOnUse" x="0" y="0" width="1200" height="1200">
<path d="M1200 1200H0V0H1200V1200ZM599.397 207.875C569.968 208.002 541.02 208.985 517.243 210.419C494.197 211.809 474.144 213.719 463.683 216.097C456.103 217.819 447.293 222.021 439.215 226.394C430.498 231.112 420.371 237.296 409.512 244.503C387.777 258.928 362.223 278.035 337.827 299.075C313.538 320.023 289.71 343.474 271.932 366.637C255.246 388.375 240.148 414.568 241 440.355V863C241 944.738 307.262 1011 389 1011H810C891.738 1011 958 944.738 958 863V440.81C958.664 429.136 955.159 417.757 950.8 408.06C946.154 397.726 939.542 387.129 931.97 376.747C916.808 355.962 896.148 333.813 874.378 313.198C852.513 292.494 828.936 272.782 807.539 256.9C786.678 241.417 766.204 228.302 750.875 222.201C734.878 215.835 710.426 212.474 685.174 210.51C658.985 208.473 628.783 207.748 599.397 207.875ZM631.144 256.099C648.888 256.441 666.038 257.166 681.452 258.365C706.825 260.339 724.625 263.415 733.127 266.799C742.298 270.449 758.574 280.334 778.932 295.443C798.753 310.156 820.865 328.631 841.375 348.052C861.979 367.562 880.382 387.476 893.189 405.034C899.601 413.824 904.2 421.469 907.02 427.741C909.161 432.506 909.826 435.491 910.014 437H910V863C910 918.228 865.228 963 810 963H389C333.772 963 289 918.228 289 863V437.082C289.503 428.989 295.232 415.116 310.009 395.863C325.043 376.276 346.215 355.227 369.176 335.425C392.03 315.715 415.977 297.822 436.055 284.497C446.101 277.83 454.959 272.451 462.062 268.606C465.614 266.684 468.547 265.244 470.843 264.241C473.221 263.203 474.285 262.914 474.32 262.903C480.359 261.531 496.557 259.753 520.134 258.331C531.04 257.673 543.132 257.114 555.899 256.693L555.726 259.059L547.017 377.059L546.541 383.5H649.951L648.936 376.624L631.517 258.624L631.144 256.099ZM313 445V863C313 904.974 347.026 939 389 939H810C851.974 939 886 904.974 886 863V445H693V529C693 537.837 685.837 545 677 545H517C508.163 545 501 537.837 501 529V445H313ZM685.594 782.877C692.013 776.025 702.771 775.675 709.623 782.094C716.475 788.513 716.825 799.271 710.406 806.123C683.768 834.557 640.649 847.004 599.035 846.938C557.183 846.87 512.712 834.194 481.839 807.323C474.757 801.159 474.013 790.421 480.177 783.339C486.341 776.257 497.079 775.513 504.161 781.677C527.288 801.806 563.067 812.88 599.09 812.938C635.351 812.996 667.732 801.943 685.594 782.877ZM1026 632.5H976V703H1026V765L1117 674L1116.45 673.446L1026 581V632.5ZM82 668L82.5527 668.554L173 761V709.5H223V639H173V577L82 668ZM540 626C544.418 626 548 629.582 548 634V713C548 717.418 544.418 721 540 721H474C469.582 721 466 717.418 466 713V634C466 629.582 469.582 626 474 626H540ZM718 626C722.418 626 726 629.582 726 634V713C726 717.418 722.418 721 718 721H652C647.582 721 644 717.418 644 713V634C644 629.582 647.582 626 652 626H718Z" fill="black"/>
</mask>
<g mask="url(#mask0_84481_4683)">
<rect width="1200" height="1200" fill="#2DD4BF"/>
</g>
</g>
<defs>
<clipPath id="clip0_84481_4683">
<rect width="1200" height="1200" fill="white"/>
</clipPath>
</defs>
</svg>
